<svg width="20" height="20" viewBox="0 0 20 20" fill="none" xmlns="http://www.w3.org/2000/svg">
<path d="M18.7503 9.99965V4.99965C18.7503 4.83389 18.6845 4.67492 18.5673 4.55771C18.4501 4.4405 18.2911 4.37465 18.1253 4.37465H13.1253C12.9596 4.37465 12.8006 4.4405 12.6834 4.55771C12.5662 4.67492 12.5003 4.83389 12.5003 4.99965C12.5003 5.16541 12.5662 5.32438 12.6834 5.44159C12.8006 5.5588 12.9596 5.62465 13.1253 5.62465H16.6168L10.6253 11.6161L7.94253 8.93246C7.88449 8.87435 7.81556 8.82825 7.73968 8.7968C7.66381 8.76535 7.58248 8.74916 7.50035 8.74916C7.41821 8.74916 7.33688 8.76535 7.26101 8.7968C7.18514 8.82825 7.1162 8.87435 7.05816 8.93246L1.43316 14.5575C1.31588 14.6747 1.25 14.8338 1.25 14.9997C1.25 15.1655 1.31588 15.3246 1.43316 15.4418C1.55044 15.5591 1.7095 15.625 1.87535 15.625C2.0412 15.625 2.20026 15.5591 2.31753 15.4418L7.50035 10.2582L10.1832 12.9418C10.2412 13 10.3101 13.046 10.386 13.0775C10.4619 13.109 10.5432 13.1251 10.6253 13.1251C10.7075 13.1251 10.7888 13.109 10.8647 13.0775C10.9406 13.046 11.0095 13 11.0675 12.9418L17.5003 6.50825V9.99965C17.5003 10.1654 17.5662 10.3244 17.6834 10.4416C17.8006 10.5588 17.9596 10.6247 18.1253 10.6247C18.2911 10.6247 18.4501 10.5588 18.5673 10.4416C18.6845 10.3244 18.7503 10.1654 18.7503 9.99965Z" fill="#2A2076"/>
<path d="M18.7503 4.99965V9.99965C18.7503 10.1654 18.6845 10.3244 18.5673 10.4416C18.4501 10.5588 18.2911 10.6247 18.1253 10.6247C17.9596 10.6247 17.8006 10.5588 17.6834 10.4416C17.5662 10.3244 17.5003 10.1654 17.5003 9.99965V6.50825L17.5 6L17.5003 5.62465H16.6168H13.1253C12.9596 5.62465 12.8006 5.5588 12.6834 5.44159C12.5662 5.32438 12.5003 5.16541 12.5003 4.99965C12.5003 4.83389 12.5662 4.67492 12.6834 4.55771C12.8006 4.4405 12.9596 4.37465 13.1253 4.37465H18.1253C18.2911 4.37465 18.4501 4.4405 18.5673 4.55771C18.6845 4.67492 18.7503 4.83389 18.7503 4.99965Z" fill="#C90C0F"/>
</svg>
