<svg width="20" height="20" viewBox="0 0 20 20" fill="none" xmlns="http://www.w3.org/2000/svg">
<mask id="mask0_40886_101555" style="mask-type:alpha" maskUnits="userSpaceOnUse" x="1" y="0" width="18" height="20">
<rect width="17" height="20" transform="translate(1.5)" fill="white"/>
</mask>
<g mask="url(#mask0_40886_101555)">
<path d="M18.125 9.75041C18.125 9.25313 17.9275 8.77621 17.5758 8.42458C17.2242 8.07295 16.7473 7.87541 16.25 7.87541H10.625V7.17228C11.1615 7.03294 11.6365 6.7196 11.9758 6.28134C12.3151 5.84308 12.4995 5.30466 12.5 4.75041C12.5 2.56291 10.4344 1.16369 10.3469 1.10509C10.2442 1.03657 10.1235 1 10 1C9.87653 1 9.75583 1.03657 9.65312 1.10509C9.56562 1.16369 7.5 2.56291 7.5 4.75041C7.50052 5.30466 7.68487 5.84308 8.02417 6.28134C8.36347 6.7196 8.83855 7.03294 9.375 7.17228V7.87541H3.75C3.25272 7.87541 2.77581 8.07295 2.42417 8.42458C2.07254 8.77621 1.875 9.25313 1.875 9.75041V11.5731C1.87564 12.2549 2.09468 12.9186 2.5 13.4668V16.6254C2.5 17.1227 2.69754 17.5996 3.04917 17.9512C3.40081 18.3029 3.87772 18.5004 4.375 18.5004H15.625C16.1223 18.5004 16.5992 18.3029 16.9508 17.9512C17.3025 17.5996 17.5 17.1227 17.5 16.6254V13.4668C17.9053 12.9186 18.1244 12.2549 18.125 11.5731V9.75041ZM8.75 4.75041C8.75 3.69025 9.53125 2.83947 10 2.42306C10.4688 2.83947 11.25 3.69025 11.25 4.75041C11.25 5.08193 11.1183 5.39987 10.8839 5.63429C10.6495 5.86871 10.3315 6.00041 10 6.00041C9.66848 6.00041 9.35054 5.86871 9.11612 5.63429C8.8817 5.39987 8.75 5.08193 8.75 4.75041ZM3.125 9.75041C3.125 9.58465 3.19085 9.42567 3.30806 9.30846C3.42527 9.19125 3.58424 9.12541 3.75 9.12541H16.25C16.4158 9.12541 16.5747 9.19125 16.6919 9.30846C16.8092 9.42567 16.875 9.58465 16.875 9.75041V11.5731C16.875 12.6082 16.0578 13.4723 15.0531 13.4996C14.8025 13.5067 14.5531 13.4635 14.3194 13.3725C14.0858 13.2815 13.8729 13.1446 13.6931 12.9699C13.5133 12.7951 13.3704 12.5861 13.2729 12.3552C13.1753 12.1243 13.125 11.8761 13.125 11.6254C13.125 11.4596 13.0592 11.3007 12.9419 11.1835C12.8247 11.0663 12.6658 11.0004 12.5 11.0004C12.3342 11.0004 12.1753 11.0663 12.0581 11.1835C11.9408 11.3007 11.875 11.4596 11.875 11.6254C11.875 12.1227 11.6775 12.5996 11.3258 12.9512C10.9742 13.3029 10.4973 13.5004 10 13.5004C9.50272 13.5004 9.02581 13.3029 8.67417 12.9512C8.32254 12.5996 8.125 12.1227 8.125 11.6254C8.125 11.4596 8.05915 11.3007 7.94194 11.1835C7.82473 11.0663 7.66576 11.0004 7.5 11.0004C7.33424 11.0004 7.17527 11.0663 7.05806 11.1835C6.94085 11.3007 6.875 11.4596 6.875 11.6254C6.8751 11.8762 6.8249 12.1244 6.72737 12.3554C6.62983 12.5864 6.48695 12.7956 6.30718 12.9704C6.1274 13.1452 5.91438 13.2822 5.68073 13.3732C5.44708 13.4643 5.19754 13.5075 4.94688 13.5004C3.94219 13.4723 3.125 12.6082 3.125 11.5731V9.75041ZM15.625 17.2504H4.375C4.20924 17.2504 4.05027 17.1846 3.93306 17.0673C3.81585 16.9501 3.75 16.7912 3.75 16.6254V14.4817C4.11585 14.6474 4.51101 14.7388 4.9125 14.7504C5.3302 14.7634 5.74621 14.6918 6.13555 14.54C6.52488 14.3881 6.87951 14.1592 7.17812 13.8668C7.29472 13.7532 7.40233 13.6307 7.5 13.5004C7.79108 13.8885 8.16853 14.2035 8.60246 14.4205C9.03638 14.6375 9.51486 14.7504 10 14.7504C10.4851 14.7504 10.9636 14.6375 11.3975 14.4205C11.8315 14.2035 12.2089 13.8885 12.5 13.5004C12.598 13.6302 12.7059 13.7521 12.8227 13.8652C13.4041 14.4347 14.1862 14.7527 15 14.7504C15.0297 14.7504 15.0594 14.7504 15.0891 14.7504C15.49 14.7386 15.8846 14.6472 16.25 14.4817V16.6254C16.25 16.7912 16.1842 16.9501 16.0669 17.0673C15.9497 17.1846 15.7908 17.2504 15.625 17.2504Z" fill="#2A2076"/>
<path d="M18.125 9.75041C18.125 9.25313 17.9275 8.77621 17.5758 8.42458C17.2242 8.07295 16.7473 7.87541 16.25 7.87541H10.625V7.17228C11.1615 7.03294 11.6365 6.7196 11.9758 6.28134C12.3151 5.84308 12.4995 5.30466 12.5 4.75041C12.5 2.56291 10.4344 1.16369 10.3469 1.10509C10.2442 1.03657 10.1235 1 10 1C9.87653 1 9.75583 1.03657 9.65312 1.10509C9.56562 1.16369 7.5 2.56291 7.5 4.75041C7.50052 5.30466 7.68487 5.84308 8.02417 6.28134C8.36347 6.7196 8.83855 7.03294 9.375 7.17228V7.87541H3.75C3.25272 7.87541 2.77581 8.07295 2.42417 8.42458C2.07254 8.77621 1.875 9.25313 1.875 9.75041V11.5731C1.87564 12.2549 2.09468 12.9186 2.5 13.4668V16.6254C2.5 17.1227 2.69754 17.5996 3.04917 17.9512C3.40081 18.3029 3.87772 18.5004 4.375 18.5004H15.625C16.1223 18.5004 16.5992 18.3029 16.9508 17.9512C17.3025 17.5996 17.5 17.1227 17.5 16.6254V13.4668C17.9053 12.9186 18.1244 12.2549 18.125 11.5731V9.75041ZM8.75 4.75041C8.75 3.69025 9.53125 2.83947 10 2.42306C10.4688 2.83947 11.25 3.69025 11.25 4.75041C11.25 5.08193 11.1183 5.39987 10.8839 5.63429C10.6495 5.86871 10.3315 6.00041 10 6.00041C9.66848 6.00041 9.35054 5.86871 9.11612 5.63429C8.8817 5.39987 8.75 5.08193 8.75 4.75041ZM3.125 9.75041C3.125 9.58465 3.19085 9.42567 3.30806 9.30846C3.42527 9.19125 3.58424 9.12541 3.75 9.12541H16.25C16.4158 9.12541 16.5747 9.19125 16.6919 9.30846C16.8092 9.42567 16.875 9.58465 16.875 9.75041V11.5731C16.875 12.6082 16.0578 13.4723 15.0531 13.4996C14.8025 13.5067 14.5531 13.4635 14.3194 13.3725C14.0858 13.2815 13.8729 13.1446 13.6931 12.9699C13.5133 12.7951 13.3704 12.5861 13.2729 12.3552C13.1753 12.1243 13.125 11.8761 13.125 11.6254C13.125 11.4596 13.0592 11.3007 12.9419 11.1835C12.8247 11.0663 12.6658 11.0004 12.5 11.0004C12.3342 11.0004 12.1753 11.0663 12.0581 11.1835C11.9408 11.3007 11.875 11.4596 11.875 11.6254C11.875 12.1227 11.6775 12.5996 11.3258 12.9512C10.9742 13.3029 10.4973 13.5004 10 13.5004C9.50272 13.5004 9.02581 13.3029 8.67417 12.9512C8.32254 12.5996 8.125 12.1227 8.125 11.6254C8.125 11.4596 8.05915 11.3007 7.94194 11.1835C7.82473 11.0663 7.66576 11.0004 7.5 11.0004C7.33424 11.0004 7.17527 11.0663 7.05806 11.1835C6.94085 11.3007 6.875 11.4596 6.875 11.6254C6.8751 11.8762 6.8249 12.1244 6.72737 12.3554C6.62983 12.5864 6.48695 12.7956 6.30718 12.9704C6.1274 13.1452 5.91438 13.2822 5.68073 13.3732C5.44708 13.4643 5.19754 13.5075 4.94688 13.5004C3.94219 13.4723 3.125 12.6082 3.125 11.5731V9.75041ZM15.625 17.2504H4.375C4.20924 17.2504 4.05027 17.1846 3.93306 17.0673C3.81585 16.9501 3.75 16.7912 3.75 16.6254V14.4817C4.11585 14.6474 4.51101 14.7388 4.9125 14.7504C5.3302 14.7634 5.74621 14.6918 6.13555 14.54C6.52488 14.3881 6.87951 14.1592 7.17812 13.8668C7.29472 13.7532 7.40233 13.6307 7.5 13.5004C7.79108 13.8885 8.16853 14.2035 8.60246 14.4205C9.03638 14.6375 9.51486 14.7504 10 14.7504C10.4851 14.7504 10.9636 14.6375 11.3975 14.4205C11.8315 14.2035 12.2089 13.8885 12.5 13.5004C12.598 13.6302 12.7059 13.7521 12.8227 13.8652C13.4041 14.4347 14.1862 14.7527 15 14.7504C15.0297 14.7504 15.0594 14.7504 15.0891 14.7504C15.49 14.7386 15.8846 14.6472 16.25 14.4817V16.6254C16.25 16.7912 16.1842 16.9501 16.0669 17.0673C15.9497 17.1846 15.7908 17.2504 15.625 17.2504Z" fill="#2A2076"/>
<path d="M10 1C10.1235 1 10.244 1.03694 10.3467 1.10547C10.4347 1.16444 12.4997 2.56305 12.5 4.75C12.4995 5.30425 12.3149 5.84299 11.9756 6.28125C11.6363 6.71945 11.1614 7.03253 10.625 7.17188V7.875H16.25C16.7473 7.875 17.2245 8.07317 17.5762 8.4248C17.9275 8.77631 18.1249 9.253 18.125 9.75V11.5732C18.1243 12.255 17.9053 12.9186 17.5 13.4668V16.625C17.5 17.1222 17.3027 17.5996 16.9512 17.9512C16.5995 18.3028 16.1223 18.5 15.625 18.5H4.375C3.87772 18.5 3.40046 18.3028 3.04883 17.9512C2.69732 17.5996 2.5 17.1222 2.5 16.625V13.4668C2.09472 12.9186 1.87568 12.255 1.875 11.5732V9.75C1.87511 9.253 2.07247 8.77631 2.42383 8.4248C2.77546 8.07317 3.25272 7.875 3.75 7.875H9.375V7.17188C8.83862 7.03253 8.36369 6.71945 8.02441 6.28125C7.68512 5.84299 7.50052 5.30425 7.5 4.75C7.50026 2.56305 9.56526 1.16444 9.65332 1.10547C9.75603 1.03694 9.87653 1 10 1ZM12.5 13.5C12.2089 13.8881 11.8314 14.2039 11.3975 14.4209C10.9636 14.6378 10.4851 14.75 10 14.75C9.51494 14.75 9.0364 14.6378 8.60254 14.4209C8.16862 14.2039 7.79108 13.8881 7.5 13.5C7.40233 13.6303 7.29432 13.7535 7.17773 13.8672C6.87924 14.1593 6.52485 14.3883 6.13574 14.54C5.7464 14.6919 5.32981 14.763 4.91211 14.75C4.51076 14.7383 4.11573 14.6472 3.75 14.4814V16.625C3.75 16.7907 3.81553 16.9502 3.93262 17.0674C4.04983 17.1846 4.20924 17.25 4.375 17.25H15.625C15.7908 17.25 15.9502 17.1846 16.0674 17.0674C16.1845 16.9502 16.25 16.7907 16.25 16.625V14.4814C15.8846 14.647 15.4898 14.7382 15.0889 14.75H15C14.1862 14.7523 13.4037 14.4347 12.8223 13.8652C12.7055 13.7522 12.5979 13.6297 12.5 13.5ZM3.75 9.125C3.58424 9.125 3.42483 9.19138 3.30762 9.30859C3.19068 9.42568 3.12511 9.58452 3.125 9.75V11.5732C3.12509 12.6083 3.94264 13.4719 4.94727 13.5C5.1978 13.5071 5.44713 13.464 5.68066 13.373C5.91432 13.282 6.12784 13.1455 6.30762 12.9707C6.48736 12.7959 6.63002 12.5865 6.72754 12.3555C6.82506 12.1245 6.8751 11.8758 6.875 11.625C6.87511 11.4595 6.94068 11.3007 7.05762 11.1836C7.17483 11.0664 7.33424 11 7.5 11C7.66576 11 7.82517 11.0664 7.94238 11.1836C8.05932 11.3007 8.12489 11.4595 8.125 11.625C8.125 12.1222 8.32232 12.5996 8.67383 12.9512C9.02546 13.3028 9.50272 13.5 10 13.5C10.4973 13.5 10.9745 13.3028 11.3262 12.9512C11.6777 12.5996 11.875 12.1222 11.875 11.625C11.8751 11.4595 11.9407 11.3007 12.0576 11.1836C12.1748 11.0664 12.3342 11 12.5 11C12.6658 11 12.8252 11.0664 12.9424 11.1836C13.0593 11.3007 13.1249 11.4595 13.125 11.625C13.125 11.8757 13.1749 12.1245 13.2725 12.3555C13.37 12.5864 13.5136 12.795 13.6934 12.9697C13.873 13.1444 14.0859 13.2811 14.3193 13.3721C14.5528 13.463 14.8023 13.507 15.0527 13.5C16.0574 13.4727 16.8749 12.6083 16.875 11.5732V9.75C16.8749 9.58452 16.8093 9.42568 16.6924 9.30859C16.5752 9.19138 16.4158 9.125 16.25 9.125H3.75ZM10 2.42285C9.53131 2.8392 8.7502 3.69003 8.75 4.75C8.75 5.08152 8.88179 5.40035 9.11621 5.63477C9.3506 5.86901 9.66861 6 10 6C10.3314 6 10.6494 5.86901 10.8838 5.63477C11.1182 5.40035 11.25 5.08152 11.25 4.75C11.2498 3.69003 10.4687 2.8392 10 2.42285Z" fill="#2A2076"/>
<mask id="mask1_40886_101555" style="mask-type:alpha" maskUnits="userSpaceOnUse" x="2" y="0" width="16" height="8">
<rect width="16" height="7" transform="translate(2 0.5)" fill="white"/>
</mask>
<g mask="url(#mask1_40886_101555)">
</g>
<g clip-path="url(#clip0_40886_101555)">
<path d="M18.125 9.75041C18.125 9.25313 17.9275 8.77621 17.5758 8.42458C17.2242 8.07295 16.7473 7.87541 16.25 7.87541H10.625V7.17228C11.1615 7.03294 11.6365 6.7196 11.9758 6.28134C12.3151 5.84308 12.4995 5.30466 12.5 4.75041C12.5 2.56291 10.4344 1.16369 10.3469 1.10509C10.2442 1.03657 10.1235 1 10 1C9.87653 1 9.75583 1.03657 9.65312 1.10509C9.56562 1.16369 7.5 2.56291 7.5 4.75041C7.50052 5.30466 7.68487 5.84308 8.02417 6.28134C8.36347 6.7196 8.83855 7.03294 9.375 7.17228V7.87541H3.75C3.25272 7.87541 2.77581 8.07295 2.42417 8.42458C2.07254 8.77621 1.875 9.25313 1.875 9.75041V11.5731C1.87564 12.2549 2.09468 12.9186 2.5 13.4668V16.6254C2.5 17.1227 2.69754 17.5996 3.04917 17.9512C3.40081 18.3029 3.87772 18.5004 4.375 18.5004H15.625C16.1223 18.5004 16.5992 18.3029 16.9508 17.9512C17.3025 17.5996 17.5 17.1227 17.5 16.6254V13.4668C17.9053 12.9186 18.1244 12.2549 18.125 11.5731V9.75041ZM8.75 4.75041C8.75 3.69025 9.53125 2.83947 10 2.42306C10.4688 2.83947 11.25 3.69025 11.25 4.75041C11.25 5.08193 11.1183 5.39987 10.8839 5.63429C10.6495 5.86871 10.3315 6.00041 10 6.00041C9.66848 6.00041 9.35054 5.86871 9.11612 5.63429C8.8817 5.39987 8.75 5.08193 8.75 4.75041ZM3.125 9.75041C3.125 9.58465 3.19085 9.42567 3.30806 9.30846C3.42527 9.19125 3.58424 9.12541 3.75 9.12541H16.25C16.4158 9.12541 16.5747 9.19125 16.6919 9.30846C16.8092 9.42567 16.875 9.58465 16.875 9.75041V11.5731C16.875 12.6082 16.0578 13.4723 15.0531 13.4996C14.8025 13.5067 14.5531 13.4635 14.3194 13.3725C14.0858 13.2815 13.8729 13.1446 13.6931 12.9699C13.5133 12.7951 13.3704 12.5861 13.2729 12.3552C13.1753 12.1243 13.125 11.8761 13.125 11.6254C13.125 11.4596 13.0592 11.3007 12.9419 11.1835C12.8247 11.0663 12.6658 11.0004 12.5 11.0004C12.3342 11.0004 12.1753 11.0663 12.0581 11.1835C11.9408 11.3007 11.875 11.4596 11.875 11.6254C11.875 12.1227 11.6775 12.5996 11.3258 12.9512C10.9742 13.3029 10.4973 13.5004 10 13.5004C9.50272 13.5004 9.02581 13.3029 8.67417 12.9512C8.32254 12.5996 8.125 12.1227 8.125 11.6254C8.125 11.4596 8.05915 11.3007 7.94194 11.1835C7.82473 11.0663 7.66576 11.0004 7.5 11.0004C7.33424 11.0004 7.17527 11.0663 7.05806 11.1835C6.94085 11.3007 6.875 11.4596 6.875 11.6254C6.8751 11.8762 6.8249 12.1244 6.72737 12.3554C6.62983 12.5864 6.48695 12.7956 6.30718 12.9704C6.1274 13.1452 5.91438 13.2822 5.68073 13.3732C5.44708 13.4643 5.19754 13.5075 4.94688 13.5004C3.94219 13.4723 3.125 12.6082 3.125 11.5731V9.75041ZM15.625 17.2504H4.375C4.20924 17.2504 4.05027 17.1846 3.93306 17.0673C3.81585 16.9501 3.75 16.7912 3.75 16.6254V14.4817C4.11585 14.6474 4.51101 14.7388 4.9125 14.7504C5.3302 14.7634 5.74621 14.6918 6.13555 14.54C6.52488 14.3881 6.87951 14.1592 7.17812 13.8668C7.29472 13.7532 7.40233 13.6307 7.5 13.5004C7.79108 13.8885 8.16853 14.2035 8.60246 14.4205C9.03638 14.6375 9.51486 14.7504 10 14.7504C10.4851 14.7504 10.9636 14.6375 11.3975 14.4205C11.8315 14.2035 12.2089 13.8885 12.5 13.5004C12.598 13.6302 12.7059 13.7521 12.8227 13.8652C13.4041 14.4347 14.1862 14.7527 15 14.7504C15.0297 14.7504 15.0594 14.7504 15.0891 14.7504C15.49 14.7386 15.8846 14.6472 16.25 14.4817V16.6254C16.25 16.7912 16.1842 16.9501 16.0669 17.0673C15.9497 17.1846 15.7908 17.2504 15.625 17.2504Z" fill="#C90C0F"/>
<path d="M18.125 9.75041C18.125 9.25313 17.9275 8.77621 17.5758 8.42458C17.2242 8.07295 16.7473 7.87541 16.25 7.87541H10.625V7.17228C11.1615 7.03294 11.6365 6.7196 11.9758 6.28134C12.3151 5.84308 12.4995 5.30466 12.5 4.75041C12.5 2.56291 10.4344 1.16369 10.3469 1.10509C10.2442 1.03657 10.1235 1 10 1C9.87653 1 9.75583 1.03657 9.65312 1.10509C9.56562 1.16369 7.5 2.56291 7.5 4.75041C7.50052 5.30466 7.68487 5.84308 8.02417 6.28134C8.36347 6.7196 8.83855 7.03294 9.375 7.17228V7.87541H3.75C3.25272 7.87541 2.77581 8.07295 2.42417 8.42458C2.07254 8.77621 1.875 9.25313 1.875 9.75041V11.5731C1.87564 12.2549 2.09468 12.9186 2.5 13.4668V16.6254C2.5 17.1227 2.69754 17.5996 3.04917 17.9512C3.40081 18.3029 3.87772 18.5004 4.375 18.5004H15.625C16.1223 18.5004 16.5992 18.3029 16.9508 17.9512C17.3025 17.5996 17.5 17.1227 17.5 16.6254V13.4668C17.9053 12.9186 18.1244 12.2549 18.125 11.5731V9.75041ZM8.75 4.75041C8.75 3.69025 9.53125 2.83947 10 2.42306C10.4688 2.83947 11.25 3.69025 11.25 4.75041C11.25 5.08193 11.1183 5.39987 10.8839 5.63429C10.6495 5.86871 10.3315 6.00041 10 6.00041C9.66848 6.00041 9.35054 5.86871 9.11612 5.63429C8.8817 5.39987 8.75 5.08193 8.75 4.75041ZM3.125 9.75041C3.125 9.58465 3.19085 9.42567 3.30806 9.30846C3.42527 9.19125 3.58424 9.12541 3.75 9.12541H16.25C16.4158 9.12541 16.5747 9.19125 16.6919 9.30846C16.8092 9.42567 16.875 9.58465 16.875 9.75041V11.5731C16.875 12.6082 16.0578 13.4723 15.0531 13.4996C14.8025 13.5067 14.5531 13.4635 14.3194 13.3725C14.0858 13.2815 13.8729 13.1446 13.6931 12.9699C13.5133 12.7951 13.3704 12.5861 13.2729 12.3552C13.1753 12.1243 13.125 11.8761 13.125 11.6254C13.125 11.4596 13.0592 11.3007 12.9419 11.1835C12.8247 11.0663 12.6658 11.0004 12.5 11.0004C12.3342 11.0004 12.1753 11.0663 12.0581 11.1835C11.9408 11.3007 11.875 11.4596 11.875 11.6254C11.875 12.1227 11.6775 12.5996 11.3258 12.9512C10.9742 13.3029 10.4973 13.5004 10 13.5004C9.50272 13.5004 9.02581 13.3029 8.67417 12.9512C8.32254 12.5996 8.125 12.1227 8.125 11.6254C8.125 11.4596 8.05915 11.3007 7.94194 11.1835C7.82473 11.0663 7.66576 11.0004 7.5 11.0004C7.33424 11.0004 7.17527 11.0663 7.05806 11.1835C6.94085 11.3007 6.875 11.4596 6.875 11.6254C6.8751 11.8762 6.8249 12.1244 6.72737 12.3554C6.62983 12.5864 6.48695 12.7956 6.30718 12.9704C6.1274 13.1452 5.91438 13.2822 5.68073 13.3732C5.44708 13.4643 5.19754 13.5075 4.94688 13.5004C3.94219 13.4723 3.125 12.6082 3.125 11.5731V9.75041ZM15.625 17.2504H4.375C4.20924 17.2504 4.05027 17.1846 3.93306 17.0673C3.81585 16.9501 3.75 16.7912 3.75 16.6254V14.4817C4.11585 14.6474 4.51101 14.7388 4.9125 14.7504C5.3302 14.7634 5.74621 14.6918 6.13555 14.54C6.52488 14.3881 6.87951 14.1592 7.17812 13.8668C7.29472 13.7532 7.40233 13.6307 7.5 13.5004C7.79108 13.8885 8.16853 14.2035 8.60246 14.4205C9.03638 14.6375 9.51486 14.7504 10 14.7504C10.4851 14.7504 10.9636 14.6375 11.3975 14.4205C11.8315 14.2035 12.2089 13.8885 12.5 13.5004C12.598 13.6302 12.7059 13.7521 12.8227 13.8652C13.4041 14.4347 14.1862 14.7527 15 14.7504C15.0297 14.7504 15.0594 14.7504 15.0891 14.7504C15.49 14.7386 15.8846 14.6472 16.25 14.4817V16.6254C16.25 16.7912 16.1842 16.9501 16.0669 17.0673C15.9497 17.1846 15.7908 17.2504 15.625 17.2504Z" fill="#C90C0F"/>
<path d="M10 1C10.1235 1 10.244 1.03694 10.3467 1.10547C10.4347 1.16444 12.4997 2.56305 12.5 4.75C12.4995 5.30425 12.3149 5.84299 11.9756 6.28125C11.6363 6.71945 11.1614 7.03253 10.625 7.17188V7.875H16.25C16.7473 7.875 17.2245 8.07317 17.5762 8.4248C17.9275 8.77631 18.1249 9.253 18.125 9.75V11.5732C18.1243 12.255 17.9053 12.9186 17.5 13.4668V16.625C17.5 17.1222 17.3027 17.5996 16.9512 17.9512C16.5995 18.3028 16.1223 18.5 15.625 18.5H4.375C3.87772 18.5 3.40046 18.3028 3.04883 17.9512C2.69732 17.5996 2.5 17.1222 2.5 16.625V13.4668C2.09472 12.9186 1.87568 12.255 1.875 11.5732V9.75C1.87511 9.253 2.07247 8.77631 2.42383 8.4248C2.77546 8.07317 3.25272 7.875 3.75 7.875H9.375V7.17188C8.83862 7.03253 8.36369 6.71945 8.02441 6.28125C7.68512 5.84299 7.50052 5.30425 7.5 4.75C7.50026 2.56305 9.56526 1.16444 9.65332 1.10547C9.75603 1.03694 9.87653 1 10 1ZM12.5 13.5C12.2089 13.8881 11.8314 14.2039 11.3975 14.4209C10.9636 14.6378 10.4851 14.75 10 14.75C9.51494 14.75 9.0364 14.6378 8.60254 14.4209C8.16862 14.2039 7.79108 13.8881 7.5 13.5C7.40233 13.6303 7.29432 13.7535 7.17773 13.8672C6.87924 14.1593 6.52485 14.3883 6.13574 14.54C5.7464 14.6919 5.32981 14.763 4.91211 14.75C4.51076 14.7383 4.11573 14.6472 3.75 14.4814V16.625C3.75 16.7907 3.81553 16.9502 3.93262 17.0674C4.04983 17.1846 4.20924 17.25 4.375 17.25H15.625C15.7908 17.25 15.9502 17.1846 16.0674 17.0674C16.1845 16.9502 16.25 16.7907 16.25 16.625V14.4814C15.8846 14.647 15.4898 14.7382 15.0889 14.75H15C14.1862 14.7523 13.4037 14.4347 12.8223 13.8652C12.7055 13.7522 12.5979 13.6297 12.5 13.5ZM3.75 9.125C3.58424 9.125 3.42483 9.19138 3.30762 9.30859C3.19068 9.42568 3.12511 9.58452 3.125 9.75V11.5732C3.12509 12.6083 3.94264 13.4719 4.94727 13.5C5.1978 13.5071 5.44713 13.464 5.68066 13.373C5.91432 13.282 6.12784 13.1455 6.30762 12.9707C6.48736 12.7959 6.63002 12.5865 6.72754 12.3555C6.82506 12.1245 6.8751 11.8758 6.875 11.625C6.87511 11.4595 6.94068 11.3007 7.05762 11.1836C7.17483 11.0664 7.33424 11 7.5 11C7.66576 11 7.82517 11.0664 7.94238 11.1836C8.05932 11.3007 8.12489 11.4595 8.125 11.625C8.125 12.1222 8.32232 12.5996 8.67383 12.9512C9.02546 13.3028 9.50272 13.5 10 13.5C10.4973 13.5 10.9745 13.3028 11.3262 12.9512C11.6777 12.5996 11.875 12.1222 11.875 11.625C11.8751 11.4595 11.9407 11.3007 12.0576 11.1836C12.1748 11.0664 12.3342 11 12.5 11C12.6658 11 12.8252 11.0664 12.9424 11.1836C13.0593 11.3007 13.1249 11.4595 13.125 11.625C13.125 11.8757 13.1749 12.1245 13.2725 12.3555C13.37 12.5864 13.5136 12.795 13.6934 12.9697C13.873 13.1444 14.0859 13.2811 14.3193 13.3721C14.5528 13.463 14.8023 13.507 15.0527 13.5C16.0574 13.4727 16.8749 12.6083 16.875 11.5732V9.75C16.8749 9.58452 16.8093 9.42568 16.6924 9.30859C16.5752 9.19138 16.4158 9.125 16.25 9.125H3.75ZM10 2.42285C9.53131 2.8392 8.7502 3.69003 8.75 4.75C8.75 5.08152 8.88179 5.40035 9.11621 5.63477C9.3506 5.86901 9.66861 6 10 6C10.3314 6 10.6494 5.86901 10.8838 5.63477C11.1182 5.40035 11.25 5.08152 11.25 4.75C11.2498 3.69003 10.4687 2.8392 10 2.42285Z" fill="#C90C0F"/>
</g>
</g>
<defs>
<clipPath id="clip0_40886_101555">
<rect width="10.3226" height="7" fill="white" transform="translate(5.09375 0.5)"/>
</clipPath>
</defs>
</svg>
