<svg width="20" height="20" viewBox="0 0 20 20" fill="none" xmlns="http://www.w3.org/2000/svg">
<path d="M9.15977 12.3374C9.99743 11.7798 10.6334 10.9674 10.9736 10.0203C11.3138 9.07325 11.3402 8.04185 11.0489 7.07862C10.7576 6.1154 10.1641 5.27149 9.35604 4.67169C8.54802 4.07189 7.56842 3.74805 6.56211 3.74805C5.5558 3.74805 4.57621 4.07189 3.76818 4.67169C2.96016 5.27149 2.36661 6.1154 2.07531 7.07862C1.784 8.04185 1.81041 9.07325 2.15063 10.0203C2.49084 10.9674 3.1268 11.7798 3.96446 12.3374C2.44921 12.8959 1.15516 13.9293 0.275393 15.2835C0.229155 15.3523 0.197038 15.4295 0.180909 15.5107C0.16478 15.592 0.164961 15.6756 0.181441 15.7568C0.19792 15.838 0.23037 15.915 0.276904 15.9836C0.323438 16.0521 0.383128 16.1107 0.452504 16.1559C0.52188 16.2012 0.599559 16.2322 0.681024 16.2472C0.76249 16.2621 0.846117 16.2607 0.927046 16.2431C1.00797 16.2255 1.08459 16.1919 1.15244 16.1444C1.22029 16.0969 1.27802 16.0364 1.32227 15.9664C1.88976 15.0935 2.6663 14.3763 3.58136 13.8798C4.49642 13.3833 5.52102 13.1232 6.56211 13.1232C7.6032 13.1232 8.6278 13.3833 9.54286 13.8798C10.4579 14.3763 11.2345 15.0935 11.802 15.9664C11.8936 16.1026 12.0352 16.1973 12.1962 16.23C12.3571 16.2626 12.5244 16.2307 12.662 16.1409C12.7995 16.0512 12.8962 15.911 12.9312 15.7506C12.9661 15.5901 12.9366 15.4224 12.8488 15.2835C11.9691 13.9293 10.675 12.8959 9.15977 12.3374ZM3.12461 8.43745C3.12461 7.75758 3.32622 7.09297 3.70393 6.52768C4.08165 5.96238 4.61852 5.52179 5.24664 5.26161C5.87476 5.00144 6.56593 4.93336 7.23273 5.066C7.89954 5.19864 8.51205 5.52603 8.99279 6.00677C9.47353 6.48751 9.80092 7.10002 9.93356 7.76683C10.0662 8.43364 9.99812 9.1248 9.73795 9.75292C9.47777 10.381 9.03718 10.9179 8.47188 11.2956C7.90659 11.6733 7.24198 11.8749 6.56211 11.8749C5.65075 11.8739 4.77701 11.5114 4.13257 10.867C3.48814 10.2226 3.12565 9.34881 3.12461 8.43745ZM19.5418 16.1484C19.403 16.2389 19.2339 16.2706 19.0717 16.2365C18.9095 16.2023 18.7675 16.1052 18.677 15.9664C18.1101 15.093 17.3337 14.3755 16.4185 13.8791C15.5032 13.3828 14.4783 13.1236 13.4371 13.1249C13.2714 13.1249 13.1124 13.0591 12.9952 12.9419C12.878 12.8247 12.8121 12.6657 12.8121 12.4999C12.8121 12.3342 12.878 12.1752 12.9952 12.058C13.1124 11.9408 13.2714 11.8749 13.4371 11.8749C13.9433 11.8745 14.4432 11.7622 14.901 11.5461C15.3588 11.3301 15.7632 11.0156 16.0854 10.6251C16.4076 10.2346 16.6395 9.77779 16.7647 9.28727C16.8898 8.79676 16.9051 8.28466 16.8094 7.78756C16.7137 7.29047 16.5094 6.82064 16.211 6.41166C15.9127 6.00268 15.5277 5.66464 15.0836 5.42169C14.6395 5.17874 14.1472 5.03688 13.6419 5.00625C13.1366 4.97562 12.6308 5.05696 12.1606 5.24448C12.0839 5.27762 12.0014 5.29506 11.9178 5.29577C11.8343 5.29647 11.7515 5.28043 11.6743 5.24859C11.5971 5.21675 11.527 5.16975 11.4683 5.11038C11.4095 5.05101 11.3633 4.98046 11.3323 4.90291C11.3012 4.82536 11.2861 4.74238 11.2877 4.65887C11.2893 4.57536 11.3076 4.49302 11.3415 4.41671C11.3755 4.3404 11.4244 4.27167 11.4854 4.21458C11.5463 4.15749 11.6181 4.1132 11.6965 4.08432C12.7726 3.65514 13.9696 3.6397 15.0564 4.04097C16.1433 4.44224 17.043 5.23179 17.5821 6.25731C18.1212 7.28282 18.2614 8.47164 17.9756 9.59442C17.6899 10.7172 16.9985 11.6944 16.0348 12.3374C17.55 12.8959 18.8441 13.9293 19.7238 15.2835C19.8144 15.4224 19.846 15.5915 19.8119 15.7537C19.7778 15.9158 19.6806 16.0578 19.5418 16.1484Z" fill="#2A2076"/>
<path d="M19.5433 16.1475C19.4045 16.2381 19.2354 16.2698 19.0732 16.2356C18.911 16.2015 18.769 16.1043 18.6785 15.9655C18.1117 15.0922 17.3352 14.3746 16.42 13.8783C15.5047 13.382 14.4798 13.1227 13.4386 13.1241C13.2729 13.1241 13.1139 13.0583 12.9967 12.9411C12.8795 12.8238 12.8136 12.6649 12.8136 12.4991C12.8136 12.3334 12.8795 12.1744 12.9967 12.0572C13.1139 11.94 13.2729 11.8741 13.4386 11.8741C13.9449 11.8736 14.4447 11.7614 14.9025 11.5453C15.3603 11.3292 15.7648 11.0147 16.0869 10.6242C16.4091 10.2338 16.641 9.77695 16.7662 9.28644C16.8913 8.79592 16.9066 8.28382 16.8109 7.78673C16.7152 7.28963 16.5109 6.81981 16.2125 6.41083C15.9142 6.00185 15.5292 5.6638 15.0851 5.42086C14.641 5.17791 14.1487 5.03605 13.6434 5.00541C13.1381 4.97478 12.6323 5.05612 12.1621 5.24364C12.0854 5.27678 12.0029 5.29422 11.9193 5.29493C11.8358 5.29564 11.753 5.27959 11.6758 5.24775C11.5986 5.21591 11.5285 5.16891 11.4698 5.10954C11.411 5.05017 11.3648 4.97962 11.3338 4.90207C11.3027 4.82452 11.2876 4.74154 11.2892 4.65803C11.2908 4.57452 11.3091 4.49218 11.343 4.41587C11.377 4.33956 11.4259 4.27083 11.4869 4.21374C11.5478 4.15665 11.6196 4.11236 11.698 4.08349C12.7741 3.65431 13.9711 3.63886 15.058 4.04013C16.1448 4.4414 17.0446 5.23095 17.5836 6.25647C18.1227 7.28198 18.2629 8.4708 17.9771 9.59358C17.6914 10.7164 17 11.6935 16.0363 12.3366C17.5515 12.8951 18.8456 13.9285 19.7253 15.2827C19.8159 15.4215 19.8476 15.5906 19.8134 15.7528C19.7793 15.915 19.6821 16.057 19.5433 16.1475Z" fill="#C90C0F"/>
</svg>
