<svg width="42" height="42" viewBox="0 0 42 42" fill="none" xmlns="http://www.w3.org/2000/svg">
<path d="M40.0011 33.5487H37.4204V15.4839C37.7626 15.4839 38.0908 15.3479 38.3328 15.106C38.5748 14.864 38.7107 14.5358 38.7107 14.1935C38.7107 13.8513 38.5748 13.5231 38.3328 13.2811C38.0908 13.0392 37.7626 12.9032 37.4204 12.9032H29.6783V7.74182C30.0205 7.74182 30.3487 7.60588 30.5907 7.36389C30.8327 7.1219 30.9686 6.7937 30.9686 6.45148C30.9686 6.10926 30.8327 5.78105 30.5907 5.53907C30.3487 5.29708 30.0205 5.16113 29.6783 5.16113H6.45209C6.10987 5.16113 5.78167 5.29708 5.53968 5.53907C5.29769 5.78105 5.16174 6.10926 5.16174 6.45148C5.16174 6.7937 5.29769 7.1219 5.53968 7.36389C5.78167 7.60588 6.10987 7.74182 6.45209 7.74182V33.5487H3.8714C3.52918 33.5487 3.20097 33.6847 2.95899 33.9267C2.717 34.1686 2.58105 34.4968 2.58105 34.8391C2.58105 35.1813 2.717 35.5095 2.95899 35.7515C3.20097 35.9935 3.52918 36.1294 3.8714 36.1294H40.0011C40.3433 36.1294 40.6715 35.9935 40.9135 35.7515C41.1555 35.5095 41.2914 35.1813 41.2914 34.8391C41.2914 34.4968 41.1555 34.1686 40.9135 33.9267C40.6715 33.6847 40.3433 33.5487 40.0011 33.5487ZM34.8397 15.4839V33.5487H29.6783V15.4839H34.8397ZM9.03278 7.74182H27.0976V33.5487H23.2266V25.8067C23.2266 25.4644 23.0906 25.1362 22.8486 24.8942C22.6067 24.6523 22.2785 24.5163 21.9362 24.5163H14.1942C13.8519 24.5163 13.5237 24.6523 13.2817 24.8942C13.0398 25.1362 12.9038 25.4644 12.9038 25.8067V33.5487H9.03278V7.74182ZM20.6459 33.5487H15.4845V27.097H20.6459V33.5487ZM11.6135 12.9032C11.6135 12.561 11.7494 12.2328 11.9914 11.9908C12.2334 11.7488 12.5616 11.6129 12.9038 11.6129H15.4845C15.8267 11.6129 16.1549 11.7488 16.3969 11.9908C16.6389 12.2328 16.7749 12.561 16.7749 12.9032C16.7749 13.2454 16.6389 13.5736 16.3969 13.8156C16.1549 14.0576 15.8267 14.1935 15.4845 14.1935H12.9038C12.5616 14.1935 12.2334 14.0576 11.9914 13.8156C11.7494 13.5736 11.6135 13.2454 11.6135 12.9032ZM19.3555 12.9032C19.3555 12.561 19.4915 12.2328 19.7335 11.9908C19.9755 11.7488 20.3037 11.6129 20.6459 11.6129H23.2266C23.5688 11.6129 23.897 11.7488 24.139 11.9908C24.381 12.2328 24.5169 12.561 24.5169 12.9032C24.5169 13.2454 24.381 13.5736 24.139 13.8156C23.897 14.0576 23.5688 14.1935 23.2266 14.1935H20.6459C20.3037 14.1935 19.9755 14.0576 19.7335 13.8156C19.4915 13.5736 19.3555 13.2454 19.3555 12.9032ZM11.6135 19.3549C11.6135 19.0127 11.7494 18.6845 11.9914 18.4425C12.2334 18.2005 12.5616 18.0646 12.9038 18.0646H15.4845C15.8267 18.0646 16.1549 18.2005 16.3969 18.4425C16.6389 18.6845 16.7749 19.0127 16.7749 19.3549C16.7749 19.6971 16.6389 20.0254 16.3969 20.2673C16.1549 20.5093 15.8267 20.6453 15.4845 20.6453H12.9038C12.5616 20.6453 12.2334 20.5093 11.9914 20.2673C11.7494 20.0254 11.6135 19.6971 11.6135 19.3549ZM19.3555 19.3549C19.3555 19.0127 19.4915 18.6845 19.7335 18.4425C19.9755 18.2005 20.3037 18.0646 20.6459 18.0646H23.2266C23.5688 18.0646 23.897 18.2005 24.139 18.4425C24.381 18.6845 24.5169 19.0127 24.5169 19.3549C24.5169 19.6971 24.381 20.0254 24.139 20.2673C23.897 20.5093 23.5688 20.6453 23.2266 20.6453H20.6459C20.3037 20.6453 19.9755 20.5093 19.7335 20.2673C19.4915 20.0254 19.3555 19.6971 19.3555 19.3549Z" fill="#2A2076"/>
<path d="M11.6094 12.8998C11.6094 12.5576 11.7453 12.2293 11.9873 11.9873C12.2293 11.7453 12.5575 11.6094 12.8997 11.6094H15.4804C15.8226 11.6094 16.1508 11.7453 16.3928 11.9873C16.6348 12.2293 16.7707 12.5576 16.7707 12.8998C16.7707 13.242 16.6348 13.5703 16.3928 13.8123C16.1508 14.0543 15.8226 14.1902 15.4804 14.1902H12.8997C12.5575 14.1902 12.2293 14.0543 11.9873 13.8123C11.7453 13.5703 11.6094 13.242 11.6094 12.8998ZM19.3514 12.8998C19.3514 12.5576 19.4873 12.2293 19.7293 11.9873C19.9713 11.7453 20.2995 11.6094 20.6417 11.6094H23.2224C23.5646 11.6094 23.8928 11.7453 24.1348 11.9873C24.3768 12.2293 24.5127 12.5576 24.5127 12.8998C24.5127 13.242 24.3768 13.5703 24.1348 13.8123C23.8928 14.0543 23.5646 14.1902 23.2224 14.1902H20.6417C20.2995 14.1902 19.9713 14.0543 19.7293 13.8123C19.4873 13.5703 19.3514 13.242 19.3514 12.8998ZM11.6094 19.3519C11.6094 19.0096 11.7453 18.6814 11.9873 18.4394C12.2293 18.1974 12.5575 18.0615 12.8997 18.0615H15.4804C15.8226 18.0615 16.1508 18.1974 16.3928 18.4394C16.6348 18.6814 16.7707 19.0096 16.7707 19.3519C16.7707 19.6941 16.6348 20.0223 16.3928 20.2643C16.1508 20.5063 15.8226 20.6423 15.4804 20.6423H12.8997C12.5575 20.6423 12.2293 20.5063 11.9873 20.2643C11.7453 20.0223 11.6094 19.6941 11.6094 19.3519ZM19.3514 19.3519C19.3514 19.0096 19.4873 18.6814 19.7293 18.4394C19.9713 18.1974 20.2995 18.0615 20.6417 18.0615H23.2224C23.5646 18.0615 23.8928 18.1974 24.1348 18.4394C24.3768 18.6814 24.5127 19.0096 24.5127 19.3519C24.5127 19.6941 24.3768 20.0223 24.1348 20.2643C23.8928 20.5063 23.5646 20.6423 23.2224 20.6423H20.6417C20.2995 20.6423 19.9713 20.5063 19.7293 20.2643C19.4873 20.0223 19.3514 19.6941 19.3514 19.3519Z" fill="#C90C0F"/>
</svg>
