<svg width="20" height="20" viewBox="0 0 20 20" fill="none" xmlns="http://www.w3.org/2000/svg">
<path d="M16.25 3.125H3.75C3.41848 3.125 3.10054 3.2567 2.86612 3.49112C2.6317 3.72554 2.5 4.04348 2.5 4.375V8.75C2.5 12.8687 4.49375 15.3648 6.16641 16.7336C7.96797 18.207 9.76016 18.707 9.83828 18.7281C9.9457 18.7573 10.059 18.7573 10.1664 18.7281C10.2445 18.707 12.0344 18.207 13.8383 16.7336C15.5063 15.3648 17.5 12.8687 17.5 8.75V4.375C17.5 4.04348 17.3683 3.72554 17.1339 3.49112C16.8995 3.2567 16.5815 3.125 16.25 3.125ZM16.25 8.75C16.25 11.6461 15.1828 13.9969 13.0781 15.7359C12.1619 16.4904 11.12 17.0775 10 17.4703C8.89469 17.0843 7.86558 16.5077 6.95938 15.7664C4.82969 14.0242 3.75 11.6641 3.75 8.75V4.375H16.25V8.75ZM6.43281 11.0672C6.31554 10.9499 6.24965 10.7909 6.24965 10.625C6.24965 10.4591 6.31554 10.3001 6.43281 10.1828C6.55009 10.0655 6.70915 9.99965 6.875 9.99965C7.04085 9.99965 7.19991 10.0655 7.31719 10.1828L8.75 11.6164L12.6828 7.68281C12.7409 7.62474 12.8098 7.57868 12.8857 7.54725C12.9616 7.51583 13.0429 7.49965 13.125 7.49965C13.2071 7.49965 13.2884 7.51583 13.3643 7.54725C13.4402 7.57868 13.5091 7.62474 13.5672 7.68281C13.6253 7.74088 13.6713 7.80982 13.7027 7.88569C13.7342 7.96156 13.7503 8.04288 13.7503 8.125C13.7503 8.20712 13.7342 8.28844 13.7027 8.36431C13.6713 8.44018 13.6253 8.50912 13.5672 8.56719L9.19219 12.9422C9.13414 13.0003 9.06521 13.0464 8.98934 13.0779C8.91346 13.1093 8.83213 13.1255 8.75 13.1255C8.66787 13.1255 8.58654 13.1093 8.51066 13.0779C8.43479 13.0464 8.36586 13.0003 8.30781 12.9422L6.43281 11.0672Z" fill="#2A2076"/>
<path d="M6.43316 11.0675C6.31588 10.9503 6.25 10.7912 6.25 10.6253C6.25 10.4595 6.31588 10.3004 6.43316 10.1832C6.55044 10.0659 6.7095 10 6.87535 10C7.0412 10 7.20026 10.0659 7.31754 10.1832L8.75035 11.6168L12.6832 7.68316C12.7412 7.62509 12.8102 7.57903 12.886 7.5476C12.9619 7.51618 13.0432 7.5 13.1253 7.5C13.2075 7.5 13.2888 7.51618 13.3647 7.5476C13.4405 7.57903 13.5095 7.62509 13.5675 7.68316C13.6256 7.74123 13.6717 7.81017 13.7031 7.88604C13.7345 7.96191 13.7507 8.04323 13.7507 8.12535C13.7507 8.20747 13.7345 8.28879 13.7031 8.36466C13.6717 8.44053 13.6256 8.50947 13.5675 8.56754L9.19254 12.9425C9.13449 13.0006 9.06556 13.0467 8.98969 13.0782C8.91381 13.1097 8.83248 13.1258 8.75035 13.1258C8.66821 13.1258 8.58688 13.1097 8.51101 13.0782C8.43514 13.0467 8.36621 13.0006 8.30816 12.9425L6.43316 11.0675Z" fill="#C90C0F"/>
</svg>
