<svg width="42" height="42" viewBox="0 0 42 42" fill="none" xmlns="http://www.w3.org/2000/svg">
<path d="M39.3939 9.67737C39.2082 9.56143 38.9959 9.49468 38.7773 9.48339C38.5586 9.4721 38.3406 9.51666 38.1439 9.61285C31.2196 13 26.2743 11.4129 21.0468 9.73866C15.5629 7.98218 9.87729 6.16763 2.02231 10.0032C1.80284 10.1085 1.61762 10.2737 1.48805 10.4797C1.35847 10.6858 1.28983 10.9243 1.29004 11.1677V30.5116C1.29001 30.7305 1.34568 30.9459 1.45182 31.1374C1.55796 31.3288 1.71108 31.4902 1.89676 31.6062C2.08244 31.7221 2.29458 31.789 2.51322 31.8004C2.73185 31.8118 2.94979 31.7674 3.14652 31.6713C10.0708 28.2841 15.0161 29.8713 20.2517 31.5455C23.3549 32.5374 26.5163 33.5488 30.0905 33.5488C32.847 33.5488 35.8535 32.9487 39.2697 31.281C39.4867 31.175 39.6696 31.0103 39.7976 30.8056C39.9257 30.6009 39.9937 30.3643 39.9939 30.1229V10.779C39.9959 10.5595 39.9418 10.3431 39.8368 10.1504C39.7318 9.95759 39.5794 9.7948 39.3939 9.67737ZM37.4197 29.3019C30.8712 32.2326 26.0889 30.7035 21.0388 29.089C17.9355 28.097 14.7741 27.0857 11.1999 27.0857C8.68872 27.0979 6.2031 27.5907 3.87718 28.5374V11.9887C10.4257 9.058 15.208 10.5871 20.2581 12.2016C25.3082 13.8162 30.5067 15.4839 37.4197 12.7565V29.3019ZM20.6452 15.4839C19.6244 15.4839 18.6265 15.7866 17.7777 16.3538C16.9289 16.9209 16.2674 17.727 15.8767 18.6701C15.4861 19.6132 15.3839 20.651 15.583 21.6522C15.7822 22.6534 16.2737 23.5731 16.9956 24.2949C17.7174 25.0168 18.6371 25.5084 19.6383 25.7075C20.6395 25.9067 21.6773 25.8044 22.6204 25.4138C23.5635 25.0231 24.3696 24.3616 24.9367 23.5128C25.5039 22.664 25.8066 21.6661 25.8066 20.6453C25.8066 19.2764 25.2628 17.9636 24.2949 16.9957C23.3269 16.0277 22.0141 15.4839 20.6452 15.4839ZM20.6452 23.226C20.1348 23.226 19.6359 23.0746 19.2115 22.7911C18.7871 22.5075 18.4563 22.1045 18.261 21.6329C18.0656 21.1613 18.0145 20.6424 18.1141 20.1418C18.2137 19.6412 18.4595 19.1814 18.8204 18.8205C19.1813 18.4596 19.6411 18.2138 20.1417 18.1142C20.6424 18.0146 21.1612 18.0657 21.6328 18.2611C22.1044 18.4564 22.5074 18.7872 22.791 19.2115C23.0746 19.6359 23.2259 20.1349 23.2259 20.6453C23.2259 21.3297 22.954 21.9862 22.47 22.4701C21.9861 22.9541 21.3297 23.226 20.6452 23.226ZM9.03211 15.4839V23.226C9.03211 23.5682 8.89616 23.8964 8.65418 24.1384C8.41219 24.3804 8.08399 24.5163 7.74177 24.5163C7.39954 24.5163 7.07134 24.3804 6.82935 24.1384C6.58737 23.8964 6.45142 23.5682 6.45142 23.226V15.4839C6.45142 15.1417 6.58737 14.8135 6.82935 14.5715C7.07134 14.3295 7.39954 14.1936 7.74177 14.1936C8.08399 14.1936 8.41219 14.3295 8.65418 14.5715C8.89616 14.8135 9.03211 15.1417 9.03211 15.4839ZM32.2583 25.8067V18.0646C32.2583 17.7224 32.3943 17.3942 32.6363 17.1522C32.8782 16.9102 33.2064 16.7743 33.5487 16.7743C33.8909 16.7743 34.2191 16.9102 34.4611 17.1522C34.7031 17.3942 34.839 17.7224 34.839 18.0646V25.8067C34.839 26.1489 34.7031 26.4771 34.4611 26.7191C34.2191 26.9611 33.8909 27.097 33.5487 27.097C33.2064 27.097 32.8782 26.9611 32.6363 26.7191C32.3943 26.4771 32.2583 26.1489 32.2583 25.8067Z" fill="#2A2076"/>
<path d="M20.6614 15.5C19.6406 15.5 18.6427 15.8027 17.7939 16.3699C16.9451 16.937 16.2835 17.7431 15.8929 18.6862C15.5022 19.6293 15.4 20.6671 15.5992 21.6683C15.7983 22.6695 16.2899 23.5892 17.0117 24.311C17.7336 25.0329 18.6532 25.5244 19.6544 25.7236C20.6557 25.9227 21.6934 25.8205 22.6366 25.4299C23.5797 25.0392 24.3858 24.3777 24.9529 23.5289C25.5201 22.6801 25.8228 21.6822 25.8228 20.6614C25.8228 19.2925 25.279 17.9797 24.311 17.0117C23.3431 16.0438 22.0303 15.5 20.6614 15.5ZM20.6614 23.2421C20.151 23.2421 19.652 23.0907 19.2276 22.8071C18.8032 22.5236 18.4725 22.1205 18.2771 21.649C18.0818 21.1774 18.0307 20.6585 18.1303 20.1579C18.2299 19.6573 18.4756 19.1975 18.8366 18.8366C19.1975 18.4756 19.6573 18.2299 20.1579 18.1303C20.6585 18.0307 21.1774 18.0818 21.649 18.2771C22.1205 18.4725 22.5236 18.8032 22.8071 19.2276C23.0907 19.652 23.2421 20.151 23.2421 20.6614C23.2421 21.3458 22.9702 22.0022 22.4862 22.4862C22.0022 22.9702 21.3458 23.2421 20.6614 23.2421Z" fill="#C90C0F"/>
</svg>
