<svg width="41" height="41" viewBox="0 0 41 41" fill="none" xmlns="http://www.w3.org/2000/svg">
<path d="M39.2067 24.0871C39.0721 24.188 38.919 24.2615 38.756 24.3033C38.593 24.345 38.4234 24.3543 38.2568 24.3305C38.0902 24.3067 37.93 24.2503 37.7852 24.1646C37.6404 24.0788 37.5139 23.9654 37.413 23.8308C36.6407 22.7928 35.6355 21.9506 34.4783 21.372C33.3211 20.7934 32.0443 20.4946 30.7505 20.4996C30.4985 20.4996 30.2522 20.4253 30.0422 20.286C29.8323 20.1467 29.6681 19.9486 29.5701 19.7164C29.5036 19.5588 29.4694 19.3894 29.4694 19.2183C29.4694 19.0473 29.5036 18.8779 29.5701 18.7203C29.6681 18.4881 29.8323 18.29 30.0422 18.1507C30.2522 18.0114 30.4985 17.9371 30.7505 17.9371C31.4694 17.937 32.1739 17.7354 32.7839 17.355C33.3939 16.9746 33.885 16.4308 34.2015 15.7853C34.5179 15.1398 34.647 14.4185 34.5741 13.7033C34.5011 12.9881 34.2291 12.3077 33.7888 11.7394C33.3485 11.1711 32.7577 10.7376 32.0835 10.4883C31.4092 10.2389 30.6785 10.1836 29.9744 10.3287C29.2703 10.4738 28.621 10.8134 28.1003 11.309C27.5795 11.8046 27.2082 12.4363 27.0285 13.1324C26.9864 13.2954 26.9126 13.4485 26.8114 13.583C26.7102 13.7175 26.5834 13.8307 26.4384 13.9163C26.2934 14.0018 26.133 14.0579 25.9663 14.0814C25.7996 14.1049 25.6299 14.0954 25.4669 14.0533C25.3039 14.0112 25.1508 13.9375 25.0163 13.8362C24.8818 13.735 24.7686 13.6083 24.6831 13.4633C24.5976 13.3183 24.5415 13.1578 24.5179 12.9912C24.4944 12.8245 24.504 12.6548 24.546 12.4918C24.7955 11.5265 25.2668 10.6328 25.9224 9.8818C26.578 9.13075 27.3999 8.54309 28.3226 8.16556C29.2453 7.78804 30.2434 7.63107 31.2374 7.70716C32.2315 7.78325 33.194 8.09029 34.0485 8.60385C34.903 9.11741 35.6259 9.82331 36.1596 10.6654C36.6932 11.5075 37.023 12.4625 37.1227 13.4544C37.2223 14.4464 37.0891 15.4479 36.7335 16.3793C36.378 17.3107 35.81 18.1463 35.0747 18.8196C36.8169 19.5739 38.3314 20.7709 39.4678 22.2917C39.5687 22.4267 39.6421 22.5802 39.6836 22.7436C39.7251 22.9069 39.734 23.0768 39.7098 23.2436C39.6855 23.4104 39.6286 23.5707 39.5423 23.7154C39.456 23.8602 39.3419 23.9865 39.2067 24.0871ZM30.5775 33.9527C30.6702 34.0985 30.7325 34.2616 30.7605 34.4321C30.7886 34.6026 30.7818 34.7771 30.7407 34.9449C30.6996 35.1127 30.625 35.2705 30.5213 35.4088C30.4176 35.547 30.287 35.6629 30.1374 35.7493C29.9878 35.8358 29.8223 35.8911 29.6507 35.912C29.4792 35.9328 29.3052 35.9187 29.1393 35.8706C28.9733 35.8224 28.8188 35.7412 28.6851 35.6318C28.5513 35.5224 28.4411 35.3871 28.361 35.234C27.5538 33.8673 26.4044 32.7347 25.0259 31.9479C23.6475 31.1611 22.0877 30.7473 20.5005 30.7473C18.9133 30.7473 17.3535 31.1611 15.9751 31.9479C14.5966 32.7347 13.4471 33.8673 12.64 35.234C12.5599 35.3871 12.4497 35.5224 12.3159 35.6318C12.1822 35.7412 12.0277 35.8224 11.8617 35.8706C11.6957 35.9187 11.5218 35.9328 11.3502 35.912C11.1787 35.8911 11.0131 35.8358 10.8635 35.7493C10.7139 35.6629 10.5834 35.547 10.4797 35.4088C10.376 35.2705 10.3014 35.1127 10.2603 34.9449C10.2191 34.7771 10.2124 34.6026 10.2405 34.4321C10.2685 34.2616 10.3308 34.0985 10.4235 33.9527C11.6656 31.8184 13.5596 30.1389 15.8271 29.1608C14.5512 28.1839 13.6135 26.8318 13.1458 25.2944C12.6781 23.757 12.7039 22.1117 13.2196 20.5898C13.7354 19.0678 14.7151 17.7458 16.021 16.8094C17.327 15.873 18.8935 15.3695 20.5005 15.3695C22.1074 15.3695 23.674 15.873 24.9799 16.8094C26.2859 17.7458 27.2656 19.0678 27.7813 20.5898C28.2971 22.1117 28.3229 23.757 27.8552 25.2944C27.3875 26.8318 26.4498 28.1839 25.1738 29.1608C27.4413 30.1389 29.3353 31.8184 30.5775 33.9527ZM20.5005 28.1871C21.5141 28.1871 22.505 27.8865 23.3478 27.3234C24.1906 26.7602 24.8475 25.9598 25.2354 25.0233C25.6233 24.0869 25.7248 23.0564 25.527 22.0623C25.3293 21.0681 24.8412 20.1549 24.1244 19.4382C23.4077 18.7214 22.4945 18.2333 21.5003 18.0356C20.5062 17.8378 19.4757 17.9393 18.5392 18.3272C17.6028 18.7151 16.8023 19.372 16.2392 20.2148C15.6761 21.0576 15.3755 22.0485 15.3755 23.0621C15.3755 24.4213 15.9154 25.7249 16.8766 26.686C17.8377 27.6471 19.1413 28.1871 20.5005 28.1871ZM11.5317 19.2183C11.5317 18.8785 11.3967 18.5526 11.1565 18.3124C10.9162 18.0721 10.5903 17.9371 10.2505 17.9371C9.53159 17.937 8.82712 17.7354 8.21709 17.355C7.60707 16.9746 7.11594 16.4308 6.79949 15.7853C6.48304 15.1398 6.35396 14.4185 6.42691 13.7033C6.49986 12.9881 6.77192 12.3077 7.21217 11.7394C7.65243 11.1711 8.24324 10.7376 8.9175 10.4883C9.59176 10.2389 10.3224 10.1836 11.0265 10.3287C11.7307 10.4738 12.38 10.8134 12.9007 11.309C13.4215 11.8046 13.7928 12.4363 13.9725 13.1324C14.0575 13.4616 14.2697 13.7436 14.5626 13.9163C14.8554 14.089 15.2049 14.1383 15.534 14.0533C15.8632 13.9684 16.1452 13.7561 16.3179 13.4633C16.4906 13.1704 16.5399 12.821 16.4549 12.4918C16.2055 11.5265 15.7342 10.6328 15.0786 9.8818C14.423 9.13075 13.6011 8.54309 12.6784 8.16556C11.7557 7.78804 10.7576 7.63107 9.76354 7.70716C8.7695 7.78325 7.80693 8.09029 6.95243 8.60385C6.09793 9.11741 5.37508 9.82331 4.8414 10.6654C4.30772 11.5075 3.97794 12.4625 3.8783 13.4544C3.77866 14.4464 3.9119 15.4479 4.26744 16.3793C4.62297 17.3107 5.19098 18.1463 5.92627 18.8196C4.18582 19.5746 2.67304 20.7716 1.53799 22.2917C1.33389 22.5636 1.24614 22.9054 1.29405 23.2419C1.34195 23.5785 1.52159 23.8822 1.79344 24.0863C2.06528 24.2904 2.40707 24.3781 2.74362 24.3302C3.08016 24.2823 3.38389 24.1027 3.58799 23.8308C4.36024 22.7928 5.36542 21.9506 6.52262 21.372C7.67982 20.7934 8.95671 20.4946 10.2505 20.4996C10.5903 20.4996 10.9162 20.3646 11.1565 20.1243C11.3967 19.884 11.5317 19.5582 11.5317 19.2183Z" fill="#2A2076"/>
<path d="M30.5806 33.9504C30.6733 34.0963 30.7356 34.2593 30.7636 34.4299C30.7916 34.6004 30.7849 34.7748 30.7438 34.9426C30.7027 35.1105 30.6281 35.2683 30.5244 35.4065C30.4207 35.5447 30.2901 35.6606 30.1405 35.7471C29.9909 35.8335 29.8254 35.8889 29.6538 35.9097C29.4823 35.9305 29.3083 35.9165 29.1424 35.8683C28.9764 35.8202 28.8219 35.739 28.6881 35.6295C28.5544 35.5201 28.4441 35.3848 28.364 35.2317C27.5569 33.865 26.4074 32.7324 25.029 31.9456C23.6505 31.1588 22.0908 30.745 20.5036 30.745C18.9164 30.745 17.3566 31.1588 15.9782 31.9456C14.5997 32.7324 13.4502 33.865 12.6431 35.2317C12.563 35.3848 12.4528 35.5201 12.319 35.6295C12.1853 35.739 12.0308 35.8202 11.8648 35.8683C11.6988 35.9165 11.5249 35.9305 11.3533 35.9097C11.1818 35.8889 11.0162 35.8335 10.8666 35.7471C10.717 35.6606 10.5864 35.5447 10.4828 35.4065C10.3791 35.2683 10.3045 35.1105 10.2634 34.9426C10.2222 34.7748 10.2155 34.6004 10.2435 34.4299C10.2716 34.2593 10.3338 34.0963 10.4265 33.9504C11.6687 31.8162 13.5627 30.1366 15.8302 29.1586C14.5543 28.1817 13.6166 26.8295 13.1489 25.2921C12.6812 23.7547 12.707 22.1094 13.2227 20.5875C13.7385 19.0656 14.7182 17.7435 16.0241 16.8071C17.3301 15.8708 18.8966 15.3672 20.5036 15.3672C22.1105 15.3672 23.6771 15.8708 24.983 16.8071C26.289 17.7435 27.2687 19.0656 27.7844 20.5875C28.3001 22.1094 28.326 23.7547 27.8583 25.2921C27.3906 26.8295 26.4529 28.1817 25.1769 29.1586C27.4444 30.1366 29.3384 31.8162 30.5806 33.9504ZM20.5036 28.1848C21.5172 28.1848 22.5081 27.8842 23.3509 27.3211C24.1937 26.758 24.8506 25.9575 25.2385 25.0211C25.6264 24.0846 25.7279 23.0541 25.5301 22.06C25.3324 21.0658 24.8442 20.1526 24.1275 19.4359C23.4108 18.7192 22.4976 18.231 21.5034 18.0333C20.5093 17.8355 19.4788 17.937 18.5423 18.3249C17.6059 18.7128 16.8054 19.3697 16.2423 20.2125C15.6792 21.0553 15.3786 22.0462 15.3786 23.0598C15.3786 24.4191 15.9185 25.7226 16.8797 26.6837C17.8408 27.6449 19.1443 28.1848 20.5036 28.1848Z" fill="#C90C0F"/>
</svg>
