<svg width="42" height="42" viewBox="0 0 42 42" fill="none" xmlns="http://www.w3.org/2000/svg">
<path d="M41.0155 17.404L36.8993 9.1684C36.7477 8.86528 36.5378 8.59499 36.2817 8.37298C36.0256 8.15097 35.7283 7.98158 35.4067 7.87449C35.0851 7.7674 34.7456 7.7247 34.4075 7.74884C34.0695 7.77297 33.7394 7.86347 33.4363 8.01515L29.425 10.02L20.9748 7.78451C20.758 7.72808 20.5304 7.72808 20.3135 7.78451L11.8634 10.02L7.85203 8.01515C7.54893 7.86347 7.21892 7.77297 6.88085 7.74884C6.54277 7.7247 6.20325 7.7674 5.88168 7.87449C5.5601 7.98158 5.26278 8.15097 5.00667 8.37298C4.75057 8.59499 4.54071 8.86528 4.38907 9.1684L0.272868 17.4024C0.121181 17.7055 0.0306865 18.0355 0.00655135 18.3736C-0.0175838 18.7117 0.0251134 19.0512 0.132205 19.3728C0.239296 19.6943 0.408683 19.9917 0.630694 20.2478C0.852705 20.5039 1.12299 20.7137 1.42611 20.8654L5.78103 23.0444L14.7312 29.4365C14.8631 29.5303 15.0113 29.5987 15.1683 29.6381L25.491 32.2188C25.7072 32.273 25.9338 32.2703 26.1486 32.211C26.3634 32.1516 26.5592 32.0376 26.7169 31.8801L35.5993 22.9961L39.8607 20.8654C40.4724 20.5591 40.9376 20.0225 41.1538 19.3734C41.3701 18.7244 41.3197 18.016 41.0139 17.404H41.0155ZM32.1621 22.7864L26.612 18.3411C26.3634 18.142 26.0499 18.0419 25.7319 18.0601C25.4138 18.0782 25.1138 18.2134 24.8894 18.4395C22.0168 21.3331 18.8151 20.967 16.7732 19.6766L23.7475 12.9023H28.8782L33.267 21.6783L32.1621 22.7864ZM6.69717 10.3216L9.99884 11.9701L5.87458 20.2041L2.57936 18.5573L6.69717 10.3216ZM25.4072 29.5365L16.0344 27.1945L8.09881 21.5267L12.615 12.4943L20.6442 10.3668L22.2249 10.7846L14.9667 17.8298L14.9538 17.8444C14.6805 18.1176 14.4722 18.4487 14.344 18.8132C14.2158 19.1777 14.1712 19.5663 14.2133 19.9504C14.2554 20.3345 14.3832 20.7043 14.5873 21.0323C14.7914 21.3604 15.0666 21.6385 15.3925 21.846C18.7087 23.9638 22.7104 23.6203 25.862 21.0396L30.3218 24.6219L25.4072 29.5365ZM35.4073 20.2025L31.2911 11.9765L34.5912 10.3216L38.709 18.5573L35.4073 20.2025ZM21.2539 35.1495C21.1842 35.4284 21.0233 35.676 20.7969 35.8531C20.5704 36.0301 20.2913 36.1265 20.0039 36.1269C19.8978 36.1268 19.7922 36.1138 19.6893 36.0882L12.9683 34.4076C12.8111 34.3688 12.6627 34.3003 12.5311 34.2059L8.28107 31.1704C8.01975 30.9652 7.84764 30.6671 7.80059 30.3382C7.75353 30.0093 7.83516 29.675 8.02847 29.4047C8.22179 29.1345 8.51188 28.9493 8.83836 28.8876C9.16483 28.8259 9.50252 28.8925 9.7811 29.0736L13.8312 31.9672L20.3216 33.5866C20.6535 33.6696 20.9389 33.8811 21.1149 34.1745C21.291 34.4679 21.3433 34.8192 21.2603 35.1511L21.2539 35.1495Z" fill="#2A2076"/>
<mask id="mask0_40886_103846" style="mask-type:alpha" maskUnits="userSpaceOnUse" x="13" y="4" width="29" height="23">
<path d="M24.6172 8.5L40.9961 4L41.9961 20.5L32.4961 26.5L30.1172 24.5L17.9961 26L13.1172 19.5L24.6172 8.5Z" fill="#C90C0F"/>
</mask>
<g mask="url(#mask0_40886_103846)">
<path d="M41.0077 17.404L36.8915 9.1684C36.7399 8.86528 36.53 8.59499 36.2739 8.37298C36.0178 8.15097 35.7205 7.98158 35.3989 7.87449C35.0773 7.7674 34.7378 7.7247 34.3997 7.74884C34.0616 7.77297 33.7316 7.86347 33.4285 8.01515L29.4172 10.02L20.967 7.78451C20.7502 7.72808 20.5226 7.72808 20.3057 7.78451L11.8556 10.02L7.84422 8.01515C7.54112 7.86347 7.21111 7.77297 6.87303 7.74884C6.53496 7.7247 6.19544 7.7674 5.87386 7.87449C5.55229 7.98158 5.25496 8.15097 4.99886 8.37298C4.74276 8.59499 4.53289 8.86528 4.38126 9.1684L0.265055 17.4024C0.113369 17.7055 0.022874 18.0355 -0.00126115 18.3736C-0.0253963 18.7117 0.0173009 19.0512 0.124392 19.3728C0.231483 19.6943 0.400871 19.9917 0.622882 20.2478C0.844892 20.5039 1.11518 20.7137 1.4183 20.8654L5.77322 23.0444L14.7234 29.4365C14.8553 29.5303 15.0035 29.5987 15.1605 29.6381L25.4832 32.2188C25.6994 32.273 25.926 32.2703 26.1408 32.211C26.3556 32.1516 26.5514 32.0376 26.7091 31.8801L35.5915 22.9961L39.8528 20.8654C40.4646 20.5591 40.9297 20.0225 41.146 19.3734C41.3622 18.7244 41.3119 18.016 41.0061 17.404H41.0077ZM32.1543 22.7864L26.6042 18.3411C26.3556 18.142 26.0421 18.0419 25.7241 18.0601C25.406 18.0782 25.106 18.2134 24.8816 18.4395C22.009 21.3331 18.8073 20.967 16.7653 19.6766L23.7397 12.9023H28.8704L33.2592 21.6783L32.1543 22.7864ZM6.68936 10.3216L9.99103 11.9701L5.86677 20.2041L2.57155 18.5573L6.68936 10.3216ZM25.3994 29.5365L16.0266 27.1945L8.091 21.5267L12.6072 12.4943L20.6364 10.3668L22.2171 10.7846L14.9589 17.8298L14.946 17.8444C14.6727 18.1176 14.4644 18.4487 14.3362 18.8132C14.208 19.1777 14.1633 19.5663 14.2055 19.9504C14.2476 20.3345 14.3754 20.7043 14.5795 21.0323C14.7836 21.3604 15.0587 21.6385 15.3847 21.846C18.7009 23.9638 22.7025 23.6203 25.8542 21.0396L30.314 24.6219L25.3994 29.5365ZM35.3995 20.2025L31.2833 11.9765L34.5834 10.3216L38.7012 18.5573L35.3995 20.2025ZM21.2461 35.1495C21.1764 35.4284 21.0155 35.676 20.7891 35.8531C20.5626 36.0301 20.2835 36.1265 19.996 36.1269C19.89 36.1268 19.7844 36.1138 19.6815 36.0882L12.9604 34.4076C12.8032 34.3688 12.6549 34.3003 12.5233 34.2059L8.27326 31.1704C8.01193 30.9652 7.83983 30.6671 7.79277 30.3382C7.74572 30.0093 7.82735 29.675 8.02066 29.4047C8.21397 29.1345 8.50407 28.9493 8.83054 28.8876C9.15702 28.8259 9.4947 28.8925 9.77329 29.0736L13.8234 31.9672L20.3138 33.5866C20.6457 33.6696 20.9311 33.8811 21.1071 34.1745C21.2832 34.4679 21.3355 34.8192 21.2525 35.1511L21.2461 35.1495Z" fill="#C90C0F"/>
</g>
</svg>
